<svg id="Layer_1" data-name="Layer 1" xmlns="http://www.w3.org/2000/svg" xmlns:xlink="http://www.w3.org/1999/xlink" viewBox="0 0 251.47 257.27"><defs><style>.cls-1,.cls-2,.cls-3,.cls-4{fill:none;}.cls-2,.cls-3,.cls-4,.cls-5{stroke:#fff;}.cls-2{stroke-width:0.8px;stroke-dasharray:2 2;}.cls-3,.cls-4,.cls-5{stroke-miterlimit:10;}.cls-3{stroke-width:4px;}.cls-4,.cls-5{stroke-width:2px;}.cls-5{fill:url(#USGS_19_Land_Inundation);}</style><pattern id="USGS_19_Land_Inundation" data-name="USGS 19 Land Inundation" x="-4.77" y="-1.45" width="72" height="72" patternUnits="userSpaceOnUse" viewBox="0 0 72 72"><rect class="cls-1" width="72" height="72"/><line class="cls-2" x1="70.26" y1="71" x2="143.7" y2="71"/><line class="cls-2" x1="70.26" y1="67" x2="143.7" y2="67"/><line class="cls-2" x1="70.26" y1="63" x2="143.7" y2="63"/><line class="cls-2" x1="70.26" y1="59" x2="143.7" y2="59"/><line class="cls-2" x1="70.26" y1="55" x2="143.7" y2="55"/><line class="cls-2" x1="70.26" y1="51" x2="143.7" y2="51"/><line class="cls-2" x1="70.26" y1="47" x2="143.7" y2="47"/><line class="cls-2" x1="70.26" y1="43" x2="143.7" y2="43"/><line class="cls-2" x1="70.26" y1="39" x2="143.7" y2="39"/><line class="cls-2" x1="70.26" y1="35" x2="143.7" y2="35"/><line class="cls-2" x1="70.26" y1="31" x2="143.7" y2="31"/><line class="cls-2" x1="70.26" y1="27" x2="143.7" y2="27"/><line class="cls-2" x1="70.26" y1="23" x2="143.7" y2="23"/><line class="cls-2" x1="70.26" y1="19" x2="143.7" y2="19"/><line class="cls-2" x1="70.26" y1="15" x2="143.7" y2="15"/><line class="cls-2" x1="70.26" y1="11" x2="143.7" y2="11"/><line class="cls-2" x1="70.26" y1="7" x2="143.7" y2="7"/><line class="cls-2" x1="70.26" y1="3" x2="143.7" y2="3"/><line class="cls-2" x1="-1.74" y1="71" x2="71.7" y2="71"/><line class="cls-2" x1="-1.74" y1="67" x2="71.7" y2="67"/><line class="cls-2" x1="-1.74" y1="63" x2="71.7" y2="63"/><line class="cls-2" x1="-1.74" y1="59" x2="71.7" y2="59"/><line class="cls-2" x1="-1.74" y1="55" x2="71.7" y2="55"/><line class="cls-2" x1="-1.74" y1="51" x2="71.7" y2="51"/><line class="cls-2" x1="-1.74" y1="47" x2="71.7" y2="47"/><line class="cls-2" x1="-1.74" y1="43" x2="71.7" y2="43"/><line class="cls-2" x1="-1.74" y1="39" x2="71.7" y2="39"/><line class="cls-2" x1="-1.74" y1="35" x2="71.7" y2="35"/><line class="cls-2" x1="-1.74" y1="31" x2="71.7" y2="31"/><line class="cls-2" x1="-1.74" y1="27" x2="71.7" y2="27"/><line class="cls-2" x1="-1.74" y1="23" x2="71.7" y2="23"/><line class="cls-2" x1="-1.74" y1="19" x2="71.7" y2="19"/><line class="cls-2" x1="-1.74" y1="15" x2="71.7" y2="15"/><line class="cls-2" x1="-1.74" y1="11" x2="71.7" y2="11"/><line class="cls-2" x1="-1.74" y1="7" x2="71.7" y2="7"/><line class="cls-2" x1="-1.74" y1="3" x2="71.7" y2="3"/><line class="cls-2" x1="0.3" y1="69" x2="73.74" y2="69"/><line class="cls-2" x1="0.3" y1="65" x2="73.74" y2="65"/><line class="cls-2" x1="0.3" y1="61" x2="73.74" y2="61"/><line class="cls-2" x1="0.3" y1="57" x2="73.74" y2="57"/><line class="cls-2" x1="0.3" y1="53" x2="73.74" y2="53"/><line class="cls-2" x1="0.3" y1="49" x2="73.74" y2="49"/><line class="cls-2" x1="0.3" y1="45" x2="73.74" y2="45"/><line class="cls-2" x1="0.3" y1="41" x2="73.74" y2="41"/><line class="cls-2" x1="0.3" y1="37" x2="73.74" y2="37"/><line class="cls-2" x1="0.3" y1="33" x2="73.74" y2="33"/><line class="cls-2" x1="0.3" y1="29" x2="73.74" y2="29"/><line class="cls-2" x1="0.3" y1="25" x2="73.74" y2="25"/><line class="cls-2" x1="0.3" y1="21" x2="73.74" y2="21"/><line class="cls-2" x1="0.3" y1="17" x2="73.74" y2="17"/><line class="cls-2" x1="0.3" y1="13" x2="73.74" y2="13"/><line class="cls-2" x1="0.3" y1="9" x2="73.74" y2="9"/><line class="cls-2" x1="0.3" y1="5" x2="73.74" y2="5"/><line class="cls-2" x1="0.3" y1="1" x2="73.74" y2="1"/><line class="cls-2" x1="-71.7" y1="69" x2="1.74" y2="69"/><line class="cls-2" x1="-71.7" y1="65" x2="1.74" y2="65"/><line class="cls-2" x1="-71.7" y1="61" x2="1.74" y2="61"/><line class="cls-2" x1="-71.7" y1="57" x2="1.74" y2="57"/><line class="cls-2" x1="-71.7" y1="53" x2="1.74" y2="53"/><line class="cls-2" x1="-71.7" y1="49" x2="1.74" y2="49"/><line class="cls-2" x1="-71.7" y1="45" x2="1.74" y2="45"/><line class="cls-2" x1="-71.7" y1="41" x2="1.74" y2="41"/><line class="cls-2" x1="-71.7" y1="37" x2="1.74" y2="37"/><line class="cls-2" x1="-71.7" y1="33" x2="1.74" y2="33"/><line class="cls-2" x1="-71.7" y1="29" x2="1.74" y2="29"/><line class="cls-2" x1="-71.7" y1="25" x2="1.74" y2="25"/><line class="cls-2" x1="-71.7" y1="21" x2="1.74" y2="21"/><line class="cls-2" x1="-71.7" y1="17" x2="1.74" y2="17"/><line class="cls-2" x1="-71.7" y1="13" x2="1.74" y2="13"/><line class="cls-2" x1="-71.7" y1="9" x2="1.74" y2="9"/><line class="cls-2" x1="-71.7" y1="5" x2="1.74" y2="5"/><line class="cls-2" x1="-71.7" y1="1" x2="1.74" y2="1"/></pattern></defs><line class="cls-3" x1="5.33" y1="36.17" x2="33.62" y2="7.89"/><line class="cls-3" x1="217.28" y1="248.49" x2="245.57" y2="220.2"/><line class="cls-3" x1="178.77" y1="252.03" x2="1.99" y2="75.26"/><line class="cls-3" x1="249.48" y1="181.32" x2="72.7" y2="4.55"/><line class="cls-3" x1="5.33" y1="36.17" x2="1.99" y2="75.26"/><line class="cls-3" x1="33.62" y1="7.89" x2="72.7" y2="4.55"/><line class="cls-3" x1="178.77" y1="252.03" x2="217.28" y2="248.49"/><line class="cls-3" x1="249.48" y1="181.32" x2="245.57" y2="220.2"/><line class="cls-4" x1="20.88" y1="43.6" x2="40.68" y2="23.81"/><line class="cls-4" x1="209.91" y1="232.88" x2="229.71" y2="213.09"/><line class="cls-4" x1="40.68" y1="23.81" x2="68.1" y2="21.52"/><line class="cls-4" x1="183" y1="235.42" x2="209.91" y2="232.88"/><circle class="cls-4" cx="18.6" cy="71.02" r="5"/><circle class="cls-4" cx="232.5" cy="185.93" r="5"/><circle class="cls-4" cx="150.3" cy="202.72" r="5"/><circle class="cls-4" cx="100.99" cy="54.04" r="5"/><polygon class="cls-5" points="167.85 142.75 139.57 171.03 83 114.46 111.28 86.18 167.85 142.75"/><line class="cls-4" x1="19.02" y1="66.04" x2="20.88" y2="43.6"/><line class="cls-4" x1="40.68" y1="23.81" x2="20.88" y2="43.6"/><line class="cls-4" x1="68.1" y1="21.52" x2="40.68" y2="23.81"/><line class="cls-4" x1="93.92" y1="46.97" x2="68.1" y2="21.52"/><line class="cls-4" x1="104.52" y1="57.58" x2="225.62" y2="178.67"/><line class="cls-4" x1="231.99" y1="190.9" x2="229.71" y2="213.09"/><line class="cls-4" x1="209.91" y1="232.88" x2="229.71" y2="213.09"/><line class="cls-4" x1="183" y1="235.42" x2="209.91" y2="232.88"/><line class="cls-4" x1="157.37" y1="209.79" x2="183" y2="235.42"/><line class="cls-4" x1="146.77" y1="199.18" x2="25.67" y2="78.09"/><line class="cls-4" x1="5.76" y1="220.63" x2="34.04" y2="248.91"/><line class="cls-4" x1="122.43" y1="202.95" x2="72.93" y2="252.45"/><line class="cls-4" x1="5.76" y1="220.63" x2="2.22" y2="181.74"/><line class="cls-4" x1="41.29" y1="233.18" x2="21.49" y2="213.38"/><line class="cls-4" x1="41.29" y1="233.18" x2="68.51" y2="235.66"/><line class="cls-4" x1="21.49" y1="213.38" x2="19.02" y2="186.16"/><line class="cls-4" x1="101.22" y1="202.95" x2="68.51" y2="235.66"/><line class="cls-4" x1="62.33" y1="142.85" x2="19.02" y2="186.16"/><circle class="cls-4" cx="108.29" cy="195.88" r="5"/><line class="cls-4" x1="61.88" y1="217.54" x2="99.45" y2="179.97"/><line class="cls-4" x1="37.14" y1="192.79" x2="74.7" y2="155.22"/><circle class="cls-4" cx="59.97" cy="251.27" r="5"/><circle class="cls-4" cx="26.97" cy="156.99" r="5"/><circle class="cls-4" cx="83.1" cy="171.06" r="5"/><circle class="cls-4" cx="63.21" cy="190.94" r="5"/><circle class="cls-4" cx="43.32" cy="210.83" r="5"/><line class="cls-4" x1="56.14" y1="198.01" x2="50.44" y2="203.72"/><line class="cls-4" x1="122.43" y1="202.95" x2="72.93" y2="252.45"/><line class="cls-4" x1="65.18" y1="251.74" x2="72.93" y2="252.45"/><line class="cls-4" x1="50.17" y1="250.38" x2="34.04" y2="248.91"/><line class="cls-4" x1="5.76" y1="220.63" x2="34.04" y2="248.91"/><line class="cls-4" x1="2.22" y1="181.74" x2="5.76" y2="220.63"/><line class="cls-4" x1="19.9" y1="164.06" x2="2.22" y2="181.74"/><line class="cls-4" x1="30.51" y1="153.45" x2="51.72" y2="132.24"/><line class="cls-4" x1="76.01" y1="178.15" x2="70.31" y2="183.85"/><line class="cls-4" x1="37.14" y1="192.79" x2="38.04" y2="203.18"/><line class="cls-4" x1="61.87" y1="217.55" x2="51.47" y2="216.65"/><line class="cls-4" x1="245.67" y1="36.64" x2="217.39" y2="8.36"/><line class="cls-4" x1="129" y1="54.32" x2="178.49" y2="4.82"/><line class="cls-4" x1="245.67" y1="36.64" x2="249.2" y2="75.53"/><line class="cls-4" x1="210.14" y1="24.09" x2="229.94" y2="43.89"/><line class="cls-4" x1="210.14" y1="24.09" x2="182.91" y2="21.62"/><line class="cls-4" x1="229.94" y1="43.89" x2="232.41" y2="71.11"/><line class="cls-4" x1="150.21" y1="54.32" x2="182.91" y2="21.62"/><line class="cls-4" x1="189.1" y1="114.42" x2="232.41" y2="71.11"/><circle class="cls-4" cx="143.14" cy="61.39" r="5"/><line class="cls-4" x1="189.54" y1="39.73" x2="151.98" y2="77.3"/><line class="cls-4" x1="214.29" y1="64.48" x2="176.73" y2="102.05"/><circle class="cls-4" cx="191.46" cy="6" r="5"/><circle class="cls-4" cx="224.46" cy="100.28" r="5"/><circle class="cls-4" cx="168.33" cy="86.21" r="5"/><circle class="cls-4" cx="188.21" cy="66.33" r="5"/><circle class="cls-4" cx="208.1" cy="46.44" r="5"/><line class="cls-4" x1="195.29" y1="59.26" x2="200.99" y2="53.55"/><line class="cls-4" x1="129" y1="54.32" x2="178.49" y2="4.82"/><line class="cls-4" x1="186.24" y1="5.53" x2="178.49" y2="4.82"/><line class="cls-4" x1="201.25" y1="6.89" x2="217.39" y2="8.36"/><line class="cls-4" x1="245.67" y1="36.64" x2="217.39" y2="8.36"/><line class="cls-4" x1="249.2" y1="75.53" x2="245.67" y2="36.64"/><line class="cls-4" x1="231.53" y1="93.21" x2="249.2" y2="75.53"/><line class="cls-4" x1="220.92" y1="103.82" x2="199.71" y2="125.03"/><line class="cls-4" x1="175.42" y1="79.12" x2="181.12" y2="73.42"/><line class="cls-4" x1="214.29" y1="64.48" x2="213.39" y2="54.09"/><line class="cls-4" x1="189.56" y1="39.72" x2="199.96" y2="40.62"/></svg>